<?xml version="1.0" encoding="utf-8"?>
<!-- Generator: Adobe Illustrator 16.0.0, SVG Export Plug-In . SVG Version: 6.00 Build 0)  -->
<!DOCTYPE svg PUBLIC "-//W3C//DTD SVG 1.1//EN" "http://www.w3.org/Graphics/SVG/1.1/DTD/svg11.dtd">
<svg version="1.1" id="Layer_1" xmlns="http://www.w3.org/2000/svg" xmlns:xlink="http://www.w3.org/1999/xlink" x="0px" y="0px"
	 width="960px" height="220px" viewBox="0 0 960 220" enable-background="new 0 0 960 220" xml:space="preserve">
	<path fill="#222222" d="M206.2,101.1l-87.3-87.3c-5-5-13.2-5-18.2,0L82.6,31.9l23,23c5.3-1.8,11.5-0.6,15.7,3.7c4.3,4.3,5.5,10.5,3.6,15.8
		l22.2,22.2c5.4-1.8,11.5-0.7,15.8,3.6c6,6,6,15.7,0,21.7c-6,6-15.7,6-21.7,0c-4.5-4.5-5.6-11.1-3.3-16.7l-20.7-20.7V139
		c1.5,0.7,2.8,1.7,4.1,2.9c6,6,6,15.7,0,21.7c-6,6-15.7,6-21.7,0c-6-6-6-15.7,0-21.7c1.5-1.5,3.2-2.6,5-3.3V83.6
		c-1.8-0.7-3.5-1.9-5-3.3c-4.5-4.5-5.6-11.2-3.3-16.8L73.6,40.8l-59.9,59.9c-5,5-5,13.2,0,18.2l87.3,87.3c5,5,13.2,5,18.2,0
		l86.9-86.9C211.3,114.3,211.3,106.1,206.2,101.1L206.2,101.1z"/>
	<path fill="#222222" d="M451,10l-88.1,50V160l88.1,50l88.1-50V60L451,10z M490.2,112.1l-24.7,13.4v1.8h24.7v19.3h-78.5v-19.3h24.7v-1.9l-24.7-13.2
	V88.1l39.3,21.2l39.2-21.2V112.1z"/>
	<path fill="#555555" d="M269.9,116.3h-26.8v-12.6h26.8V75.4h13v28.3h26.8v12.6H283v28.3h-13V116.3z"/>
	<path fill="#555555" d="M615.1,86.9h66.7v12.6h-66.7V86.9z M615.1,120.5h66.7v12.6h-66.7V120.5z"/>
	<path id="path2417" fill="#FF0000" d="M830,198.8c-4.8-5.4-16.7-15.8-26.6-23.2c-29.1-22-33.1-25.2-44.9-36
		c-21.8-20.1-31-40.2-31-67.5c0-13.3,0.9-18.5,4.7-26.3c6.3-13.3,15.7-23.3,27.6-29.3c8.5-4.3,12.6-6.2,26.7-6.3
		c14.8-0.1,17.9,1.6,26.6,6.4c10.6,5.8,21.5,18.2,23.7,27l1.4,5.4l3.4-7.5C861-1,922.9-0.3,944.4,42.5c6.8,13.6,7.6,42.6,1.5,58.9
		c-7.9,21.3-22.7,37.6-57,62.5c-22.5,16.3-47.9,41-49.7,44.5C837.1,212.4,839.1,209,830,198.8z"/>
</svg>
