<?xml version="1.0" encoding="utf-8"?>
<!-- Generator: Adobe Illustrator 16.0.0, SVG Export Plug-In . SVG Version: 6.00 Build 0)  -->
<!DOCTYPE svg PUBLIC "-//W3C//DTD SVG 1.1//EN" "http://www.w3.org/Graphics/SVG/1.1/DTD/svg11.dtd">
<svg version="1.1" id="Layer_1" xmlns:sketch="http://www.bohemiancoding.com/sketch/ns"
	 xmlns="http://www.w3.org/2000/svg" xmlns:xlink="http://www.w3.org/1999/xlink" x="0px" y="0px" width="55px" height="31px"
	 viewBox="-1 -1 55 31" enable-background="new -1 -1 55 31" xml:space="preserve">
<path id="Shape_1_" fill="#FFFFFF" d="M26.892,0C42.23,0,53,7.19,53,15.194C53,23.314,44.466,29,33.761,29
	c-7.768,0-19.133-3.52-19.133-11.986c0-2.799,1.37-3.988,1.813-3.988c0.656,0,0.527,1.74,0.527,2.514
	c0,8.947,9.983,10.902,16.751,10.902c10.896,0,16.711-5.386,16.711-10.924c0-4.532-4.582-13.156-26.108-13.156
	c-19.913,0-23.548,10.263-24.275,9.516C-0.488,11.329,3.313,0,26.892,0C26.892,0,3.313,0,26.892,0L26.892,0L26.892,0L26.892,0
	L26.892,0z"/>
<path id="Shape_2_" fill="#FFFFFF" d="M29.146,14.912c0,0-4.277,1.496-8.407,1.496c-1.314,0-1.272-2.58,0.337-2.58
	c1.288,0,5.97-0.558,9.629-1.886c8.463-3.068,8.949-6.718,9.61-6.718c0.593,0,1.056,3.689-3.351,6.241
	c-2.171,1.258-5.058,2.514-5.058,2.514s-0.148,0.868-0.148,2.645c0,3.367,4.109,7.019,4.109,8.583c0,0.151-0.063,0.303-0.21,0.303
	c-4.106,0-6.596-6.109-6.596-8.821C29.062,15.692,29.146,14.912,29.146,14.912L29.146,14.912L29.146,14.912L29.146,14.912
	L29.146,14.912z"/>
<path id="Shape" fill="#FFFFFF" d="M39.722,24.25c0.466,0,0.532-0.294,0.532-0.484c0-1.512-3.004-3.723-3.3-6.253
	c-0.065-0.565-0.362-1.723-0.589-2.015c-0.147-0.189-0.663-0.122-0.97-0.413c-0.461-0.436-0.458-0.647-0.621-0.647
	c-0.744,0-0.938,0.781-0.938,1.612C33.835,19.29,37.283,24.25,39.722,24.25C39.722,24.25,37.283,24.25,39.722,24.25L39.722,24.25
	L39.722,24.25L39.722,24.25L39.722,24.25z"/>
</svg>
