<?xml version="1.0" encoding="utf-8"?>
<!-- Generator: Adobe Illustrator 16.0.0, SVG Export Plug-In . SVG Version: 6.00 Build 0)  -->
<!DOCTYPE svg PUBLIC "-//W3C//DTD SVG 1.1//EN" "http://www.w3.org/Graphics/SVG/1.1/DTD/svg11.dtd">
<svg version="1.1" id="Layer_1" xmlns="http://www.w3.org/2000/svg" xmlns:xlink="http://www.w3.org/1999/xlink" x="0px" y="0px"
	 width="185.228px" height="207.309px" viewBox="-0.228 12.691 185.228 207.309"
	 enable-background="new -0.228 12.691 185.228 207.309" xml:space="preserve">
<g>
	<path fill="#F7DF1E" d="M161.212,78.075c-1.017,0.637-2.849,1.77-5.364,3.273c-1.102,7.887-7.381,33.784-42.65,48.465
		c-35.255,14.676-57.085,0.444-63.273-4.585c-3.889,0.97-6.347,1.516-6.849,1.625V220H185V78.075H161.212z"/>
	<path d="M80.393,196.677l10.861-6.572c2.096,3.716,4.001,6.858,8.574,6.858c4.383,0,7.146-1.714,7.146-8.383v-45.347h13.337v45.535
		c0,13.814-8.097,20.102-19.911,20.102C89.729,208.87,83.536,203.345,80.393,196.677"/>
	<path d="M127.554,195.249l10.86-6.288c2.859,4.669,6.574,8.099,13.147,8.099c5.527,0,9.051-2.764,9.051-6.574
		c0-4.572-3.621-6.193-9.718-8.858l-3.333-1.432c-9.623-4.096-16.007-9.239-16.007-20.1c0-10.005,7.621-17.626,19.53-17.626
		c8.479,0,14.576,2.954,18.958,10.671l-10.383,6.667c-2.288-4.096-4.765-5.714-8.575-5.714c-3.905,0-6.382,2.477-6.382,5.714
		c0,4.003,2.477,5.623,8.192,8.1l3.333,1.429c11.337,4.859,17.721,9.813,17.721,20.959c0,12.005-9.432,18.577-22.101,18.577
		C139.463,208.872,131.459,202.966,127.554,195.249"/>
</g>
<g>
	<circle fill="#222222" cx="95.313" cy="84.508" r="12.7"/>
	<path fill="#222222" d="M71.148,26.977C23.972,46.614-7.331,79.142,1.162,99.545c3.612,8.678,15.85,9.975,33.206,6.65l8.608,20.68
		c0,0,30.717-6.613,61.737-19.525c31.021-12.913,57.434-29.865,57.434-29.865L153.5,56.712
		c14.442-9.803,22.053-19.362,18.364-28.225C163.463,8.047,118.324,7.339,71.148,26.977z M154.755,74.82
		c0,0-26.789,15.268-53.932,26.566c-27.143,11.299-54.737,18.127-54.737,18.127L35.902,95.049c0,0,27.136-15.736,53.263-26.612
		c26.126-10.876,55.214-18.543,55.214-18.543L154.755,74.82z"/>
	<g>
		<path fill="#222222" d="M113.197,129.813c-41.267,17.179-64.144-5.252-65.066-6.168l5.917-5.821
			c0.754,0.77,20.086,19.369,55.999,4.42c36.098-15.027,37.685-42.441,37.762-43.557l8.269,0.349
			C156.038,80.244,154.373,112.674,113.197,129.813z"/>
	</g>
</g>
</svg>
