<?xml version="1.0" encoding="utf-8"?>
<!-- Generator: Adobe Illustrator 16.0.0, SVG Export Plug-In . SVG Version: 6.00 Build 0)  -->
<!DOCTYPE svg PUBLIC "-//W3C//DTD SVG 1.1//EN" "http://www.w3.org/Graphics/SVG/1.1/DTD/svg11.dtd">
<svg version="1.1" id="Layer_1" xmlns="http://www.w3.org/2000/svg" xmlns:xlink="http://www.w3.org/1999/xlink" x="0px" y="0px"
	 width="185px" height="220px" viewBox="0 0 185 220" enable-background="new 0 0 185 220" xml:space="preserve">
<circle fill="#222222" cx="92.7" cy="62.4" r="12.7"/>
<path fill="#FF0200" d="M156.3,81.8c-1.2,0.2-3.4,0.6-6.5,1c-4.2,7-19.9,28.3-58,28.3c-38.2,0-52.8-21.5-56.6-28.5
	c-2.7-0.4-4.7-0.7-5.9-0.9l-13.4,7.6v87.2L92.7,220l76.8-43.6V89.3L156.3,81.8z M126.9,134.7l-21.5,11.6v1.6h21.5v16.8H58.4v-16.8
	H80v-1.6l-21.5-11.6v-20.8l34.3,18.5l34.3-18.5V134.7z"/>
<path fill="#222222" d="M92.5,0C41.4,0,0,18,0,40.1C0,49.5,10.8,55.4,28.1,59v22.4c0,0,30.9,5.7,64.5,5.7s64.5-5.5,64.5-5.5V59.1
	c17.1-3.5,27.8-9.4,27.8-19C185,18,143.6,0,92.5,0z M151.3,76.3c0,0-30.6,3.8-60,3.8c-29.4,0-57.5-4.3-57.5-4.3V49.3
	c0,0,31.1-4.1,59.4-4.1c28.3,0,58.1,4.1,58.1,4.1V76.3z"/>
<g>
	<path fill="#222222" d="M91.8,111.1c-44.7,0-57.2-29.5-57.7-30.7l7.7-3.1c0.4,1,11.1,25.6,50,25.6c39.1,0,51.1-24.7,51.6-25.7
		l7.5,3.5C150.4,81.8,136.4,111.1,91.8,111.1z"/>
</g>
</svg>
