<?xml version="1.0" encoding="UTF-8" standalone="no"?>
<svg width="960px" height="220px" viewBox="0 0 960 220" version="1.1" xmlns="http://www.w3.org/2000/svg" xmlns:xlink="http://www.w3.org/1999/xlink" xmlns:sketch="http://www.bohemiancoding.com/sketch/ns">
    <!-- Generator: Sketch 3.2 (9961) - http://www.bohemiancoding.com/sketch -->
    <title>decoupling</title>
    <desc>Created with Sketch.</desc>
    <defs></defs>
    <g id="Page-1" stroke="none" stroke-width="1" fill="none" fill-rule="evenodd" sketch:type="MSPage">
        <g id="decoupling" sketch:type="MSArtboardGroup">
            <rect id="Rectangle-1" stroke="#979797" stroke-width="2" fill="#D8D8D8" sketch:type="MSShapeGroup" x="205" y="5" width="98" height="51"></rect>
            <rect id="Rectangle-1" stroke="#979797" stroke-width="2" fill="#D8D8D8" sketch:type="MSShapeGroup" x="301" y="5" width="98" height="51"></rect>
            <rect id="Rectangle-1" stroke="#979797" stroke-width="2" fill="#D8D8D8" sketch:type="MSShapeGroup" x="397" y="5" width="98" height="51"></rect>
            <rect id="Rectangle-4" stroke="#979797" stroke-width="2" fill="#D8D8D8" sketch:type="MSShapeGroup" x="205" y="69" width="290" height="59"></rect>
            <rect id="Rectangle-4" stroke="#979797" stroke-width="2" fill="#D8D8D8" sketch:type="MSShapeGroup" x="205" y="156" width="242" height="59"></rect>
            <rect id="Rectangle-4" stroke="#979797" stroke-width="2" fill="#D8D8D8" sketch:type="MSShapeGroup" x="445" y="156" width="50" height="59"></rect>
            <rect id="Rectangle-5" stroke="#979797" stroke-width="2" fill="#D8D8D8" sketch:type="MSShapeGroup" x="205" y="126.174159" width="50.0352113" height="16.8258407"></rect>
            <rect id="Rectangle-5" stroke="#979797" stroke-width="2" fill="#D8D8D8" sketch:type="MSShapeGroup" x="252.992958" y="126.174159" width="50.0352113" height="16.8258407"></rect>
            <rect id="Rectangle-5" stroke="#979797" stroke-width="2" fill="#D8D8D8" sketch:type="MSShapeGroup" x="300.985915" y="126.174159" width="50.0352113" height="16.8258407"></rect>
            <rect id="Rectangle-5" stroke="#979797" stroke-width="2" fill="#D8D8D8" sketch:type="MSShapeGroup" x="348.978873" y="126.174159" width="50.0352113" height="16.8258407"></rect>
            <rect id="Rectangle-5" stroke="#979797" stroke-width="2" fill="#D8D8D8" sketch:type="MSShapeGroup" x="396.971831" y="126.174159" width="50.0352113" height="16.8258407"></rect>
            <rect id="Rectangle-5" stroke="#979797" stroke-width="2" fill="#D8D8D8" sketch:type="MSShapeGroup" x="444.964789" y="126.174159" width="50.0352113" height="16.8258407"></rect>
            <rect id="Rectangle-13" stroke="#979797" stroke-width="2" fill="#D8D8D8" sketch:type="MSShapeGroup" x="544" y="5" width="211" height="26"></rect>
            <rect id="Rectangle-13" stroke="#979797" stroke-width="2" fill="#D8D8D8" sketch:type="MSShapeGroup" x="544" y="29" width="211" height="40"></rect>
            <rect id="Rectangle-13" stroke="#979797" stroke-width="2" fill="#D8D8D8" sketch:type="MSShapeGroup" x="544" y="67" width="211" height="100"></rect>
            <rect id="Rectangle-13" stroke="#979797" stroke-width="2" fill="#D8D8D8" sketch:type="MSShapeGroup" x="544" y="164" width="211" height="51"></rect>
            <text id="Post" sketch:type="MSTextLayer" font-family="Fira Sans" font-size="12" font-weight="normal" fill="#646464">
                <tspan x="555" y="88">Post</tspan>
            </text>
            <path d="M135.688,121.6 C135.688,119.58399 135.128006,117.928006 134.008,116.632 C132.887994,115.335994 131.256011,114.688 129.112,114.688 L129.112,109.552 C131.256011,109.552 132.887994,108.912006 134.008,107.632 C135.128006,106.351994 135.688,104.68801 135.688,102.64 C135.688,101.039992 135.560001,99.4560078 135.304,97.888 C135.047999,96.3199922 134.768002,94.7520078 134.464,93.184 C134.159998,91.6159922 133.880001,90.032008 133.624,88.432 C133.367999,86.831992 133.24,85.2000083 133.24,83.536 C133.24,81.327989 133.567997,79.2960093 134.224,77.44 C134.880003,75.5839907 135.871993,73.9840067 137.2,72.64 C138.528007,71.2959933 140.17599,70.2560037 142.144,69.52 C144.11201,68.7839963 146.407987,68.416 149.032,68.416 L151.576,68.416 L151.576,72.208 C151.576,72.8480032 151.352002,73.3119986 150.904,73.6 C150.455998,73.8880014 150.040002,74.032 149.656,74.032 L148.696,74.032 C146.231988,74.032 144.288007,74.8399919 142.864,76.456 C141.439993,78.0720081 140.728,80.2559862 140.728,83.008 C140.728,84.800009 140.839999,86.5279917 141.064,88.192 C141.288001,89.8560083 141.543999,91.4799921 141.832,93.064 C142.120001,94.6480079 142.375999,96.2239922 142.6,97.792 C142.824001,99.3600078 142.936,100.943992 142.936,102.544 C142.936,103.760006 142.760002,104.887995 142.408,105.928 C142.055998,106.968005 141.552003,107.895996 140.896,108.712 C140.239997,109.528004 139.472004,110.231997 138.592,110.824 C137.711996,111.416003 136.744005,111.855999 135.688,112.144 C136.744005,112.432001 137.711996,112.871997 138.592,113.464 C139.472004,114.056003 140.239997,114.767996 140.896,115.6 C141.552003,116.432004 142.055998,117.359995 142.408,118.384 C142.760002,119.408005 142.936,120.511994 142.936,121.696 C142.936,123.296008 142.824001,124.879992 142.6,126.448 C142.375999,128.016008 142.120001,129.591992 141.832,131.176 C141.543999,132.760008 141.288001,134.383992 141.064,136.048 C140.839999,137.712008 140.728,139.439991 140.728,141.232 C140.728,144.016014 141.439993,146.207992 142.864,147.808 C144.288007,149.408008 146.231988,150.208 148.696,150.208 L149.656,150.208 C150.040002,150.208 150.455998,150.351999 150.904,150.64 C151.352002,150.928001 151.576,151.391997 151.576,152.032 L151.576,155.872 L149.032,155.872 C146.407987,155.872 144.11201,155.496004 142.144,154.744 C140.17599,153.991996 138.528007,152.944007 137.2,151.6 C135.871993,150.255993 134.880003,148.656009 134.224,146.8 C133.567997,144.943991 133.24,142.912011 133.24,140.704 C133.24,139.039992 133.367999,137.416008 133.624,135.832 C133.880001,134.247992 134.159998,132.664008 134.464,131.08 C134.768002,129.495992 135.047999,127.920008 135.304,126.352 C135.560001,124.783992 135.688,123.200008 135.688,121.6 L135.688,121.6 Z" id="{" fill="#96BE3C" sketch:type="MSShapeGroup"></path>
            <path d="M824.112,121.6 C824.112,123.200008 824.239999,124.783992 824.496,126.352 C824.752001,127.920008 825.031998,129.495992 825.336,131.08 C825.640002,132.664008 825.919999,134.247992 826.176,135.832 C826.432001,137.416008 826.56,139.039992 826.56,140.704 C826.56,142.912011 826.224003,144.943991 825.552,146.8 C824.879997,148.656009 823.888007,150.255993 822.576,151.6 C821.263993,152.944007 819.62401,153.991996 817.656,154.744 C815.68799,155.496004 813.392013,155.872 810.768,155.872 L808.224,155.872 L808.224,152.032 C808.224,151.391997 808.447998,150.928001 808.896,150.64 C809.344002,150.351999 809.759998,150.208 810.144,150.208 L811.104,150.208 C813.568012,150.208 815.511993,149.408008 816.936,147.808 C818.360007,146.207992 819.072,144.016014 819.072,141.232 C819.072,139.439991 818.960001,137.712008 818.736,136.048 C818.511999,134.383992 818.256001,132.760008 817.968,131.176 C817.679999,129.591992 817.424001,128.016008 817.2,126.448 C816.975999,124.879992 816.864,123.296008 816.864,121.696 C816.864,120.511994 817.039998,119.408005 817.392,118.384 C817.744002,117.359995 818.247997,116.432004 818.904,115.6 C819.560003,114.767996 820.327996,114.056003 821.208,113.464 C822.088004,112.871997 823.055995,112.432001 824.112,112.144 C823.055995,111.855999 822.088004,111.416003 821.208,110.824 C820.327996,110.231997 819.560003,109.528004 818.904,108.712 C818.247997,107.895996 817.744002,106.968005 817.392,105.928 C817.039998,104.887995 816.864,103.760006 816.864,102.544 C816.864,100.943992 816.975999,99.3600078 817.2,97.792 C817.424001,96.2239922 817.679999,94.6480079 817.968,93.064 C818.256001,91.4799921 818.511999,89.8560083 818.736,88.192 C818.960001,86.5279917 819.072,84.800009 819.072,83.008 C819.072,80.2559862 818.360007,78.0720081 816.936,76.456 C815.511993,74.8399919 813.568012,74.032 811.104,74.032 L810.144,74.032 C809.759998,74.032 809.344002,73.8880014 808.896,73.6 C808.447998,73.3119986 808.224,72.8480032 808.224,72.208 L808.224,68.416 L810.768,68.416 C813.392013,68.416 815.68799,68.7839963 817.656,69.52 C819.62401,70.2560037 821.263993,71.2959933 822.576,72.64 C823.888007,73.9840067 824.879997,75.5839907 825.552,77.44 C826.224003,79.2960093 826.56,81.327989 826.56,83.536 C826.56,85.2000083 826.432001,86.831992 826.176,88.432 C825.919999,90.032008 825.640002,91.6159922 825.336,93.184 C825.031998,94.7520078 824.752001,96.3199922 824.496,97.888 C824.239999,99.4560078 824.112,101.039992 824.112,102.64 C824.112,104.68801 824.671994,106.351994 825.792,107.632 C826.912006,108.912006 828.543989,109.552 830.688,109.552 L830.688,114.688 C828.543989,114.688 826.912006,115.335994 825.792,116.632 C824.671994,117.928006 824.112,119.58399 824.112,121.6 L824.112,121.6 Z" id="}" fill="#96BE3C" sketch:type="MSShapeGroup"></path>
            <path d="M560.76,22 L560.76,18.124 L557.4,18.124 L557.4,22 L556.26,22 L556.26,13.732 L557.4,13.732 L557.4,17.188 L560.76,17.188 L560.76,13.732 L561.9,13.732 L561.9,22 L560.76,22 Z M565.02,19.216 C565.068,19.9200035 565.243998,20.4339984 565.548,20.758 C565.852002,21.0820016 566.243998,21.244 566.724,21.244 C567.012001,21.244 567.279999,21.2020004 567.528,21.118 C567.776001,21.0339996 568.035999,20.8800011 568.308,20.656 L568.812,21.388 C568.515999,21.6200012 568.192002,21.8039993 567.84,21.94 C567.487998,22.0760007 567.108002,22.144 566.7,22.144 C566.227998,22.144 565.814002,22.0640008 565.458,21.904 C565.101998,21.7439992 564.804001,21.5200014 564.564,21.232 C564.323999,20.9439986 564.144001,20.598002 564.024,20.194 C563.903999,19.789998 563.844,19.3400025 563.844,18.844 C563.844,18.3639976 563.903999,17.922002 564.024,17.518 C564.144001,17.113998 564.319999,16.7660015 564.552,16.474 C564.784001,16.1819985 565.063998,15.9520008 565.392,15.784 C565.720002,15.6159992 566.095998,15.532 566.52,15.532 C567.352004,15.532 567.985998,15.8099972 568.422,16.366 C568.858002,16.9220028 569.076,17.6839952 569.076,18.652 C569.076,18.7640006 569.074,18.8679995 569.07,18.964 C569.066,19.0600005 569.06,19.1439996 569.052,19.216 L565.02,19.216 Z M566.52,16.408 C566.087998,16.408 565.740001,16.5699984 565.476,16.894 C565.211999,17.2180016 565.06,17.7199966 565.02,18.4 L567.984,18.4 C567.968,17.7439967 567.844001,17.2480017 567.612,16.912 C567.379999,16.5759983 567.016002,16.408 566.52,16.408 L566.52,16.408 Z M575.148,20.572 C575.148,20.8280013 575.186,21.0099995 575.262,21.118 C575.338,21.2260005 575.455999,21.3119997 575.616,21.376 L575.352,22.144 C575.071999,22.1039998 574.832001,22.0160007 574.632,21.88 C574.431999,21.7439993 574.284,21.5360014 574.188,21.256 C573.963999,21.5600015 573.690002,21.7839993 573.366,21.928 C573.041998,22.0720007 572.688002,22.144 572.304,22.144 C571.663997,22.144 571.162002,21.9660018 570.798,21.61 C570.433998,21.2539982 570.252,20.780003 570.252,20.188 C570.252,19.5319967 570.505997,19.0280018 571.014,18.676 C571.522003,18.3239982 572.259995,18.148 573.228,18.148 L574.044,18.148 L574.044,17.656 C574.044,17.2079978 573.932001,16.8920009 573.708,16.708 C573.483999,16.5239991 573.140002,16.432 572.676,16.432 C572.467999,16.432 572.222001,16.4579997 571.938,16.51 C571.653999,16.5620003 571.348002,16.6439994 571.02,16.756 L570.732,15.94 C571.124002,15.7959993 571.495998,15.6920003 571.848,15.628 C572.200002,15.5639997 572.531998,15.532 572.844,15.532 C573.652004,15.532 574.237998,15.7139982 574.602,16.078 C574.966002,16.4420018 575.148,16.9479968 575.148,17.596 L575.148,20.572 Z M572.604,21.316 C572.908002,21.316 573.177999,21.2400008 573.414,21.088 C573.650001,20.9359992 573.859999,20.7200014 574.044,20.44 L574.044,18.88 L573.288,18.88 C572.607997,18.88 572.134001,18.9939989 571.866,19.222 C571.597999,19.4500011 571.464,19.7559981 571.464,20.14 C571.464,20.532002 571.553999,20.825999 571.734,21.022 C571.914001,21.218001 572.203998,21.316 572.604,21.316 L572.604,21.316 Z M579.732,16.408 C579.227997,16.408 578.836001,16.607998 578.556,17.008 C578.275999,17.408002 578.136,18.0199959 578.136,18.844 C578.136,19.6840042 578.261999,20.2979981 578.514,20.686 C578.766001,21.0740019 579.131998,21.268 579.612,21.268 C579.948002,21.268 580.243999,21.170001 580.5,20.974 C580.756001,20.777999 580.967999,20.5520013 581.136,20.296 L581.136,17.188 C580.967999,16.9399988 580.762001,16.7480007 580.518,16.612 C580.273999,16.4759993 580.012001,16.408 579.732,16.408 L579.732,16.408 Z M579.444,15.532 C580.148004,15.532 580.711998,15.7759976 581.136,16.264 L581.136,13 L582.24,13.132 L582.24,22 L581.268,22 L581.172,21.184 C580.939999,21.5120016 580.670002,21.7539992 580.362,21.91 C580.053998,22.0660008 579.720002,22.144 579.36,22.144 C578.951998,22.144 578.596002,22.0660008 578.292,21.91 C577.987998,21.7539992 577.738001,21.5320014 577.542,21.244 C577.345999,20.9559986 577.198001,20.608002 577.098,20.2 C576.997999,19.791998 576.948,19.3400025 576.948,18.844 C576.948,18.3639976 577.003999,17.922002 577.116,17.518 C577.228001,17.113998 577.391999,16.7660015 577.608,16.474 C577.824001,16.1819985 578.085998,15.9520008 578.394,15.784 C578.702002,15.6159992 579.051998,15.532 579.444,15.532 L579.444,15.532 Z M585.276,19.216 C585.324,19.9200035 585.499998,20.4339984 585.804,20.758 C586.108002,21.0820016 586.499998,21.244 586.98,21.244 C587.268001,21.244 587.535999,21.2020004 587.784,21.118 C588.032001,21.0339996 588.291999,20.8800011 588.564,20.656 L589.068,21.388 C588.771999,21.6200012 588.448002,21.8039993 588.096,21.94 C587.743998,22.0760007 587.364002,22.144 586.956,22.144 C586.483998,22.144 586.070002,22.0640008 585.714,21.904 C585.357998,21.7439992 585.060001,21.5200014 584.82,21.232 C584.579999,20.9439986 584.400001,20.598002 584.28,20.194 C584.159999,19.789998 584.1,19.3400025 584.1,18.844 C584.1,18.3639976 584.159999,17.922002 584.28,17.518 C584.400001,17.113998 584.575999,16.7660015 584.808,16.474 C585.040001,16.1819985 585.319998,15.9520008 585.648,15.784 C585.976002,15.6159992 586.351998,15.532 586.776,15.532 C587.608004,15.532 588.241998,15.8099972 588.678,16.366 C589.114002,16.9220028 589.332,17.6839952 589.332,18.652 C589.332,18.7640006 589.33,18.8679995 589.326,18.964 C589.322,19.0600005 589.316,19.1439996 589.308,19.216 L585.276,19.216 Z M586.776,16.408 C586.343998,16.408 585.996001,16.5699984 585.732,16.894 C585.467999,17.2180016 585.316,17.7199966 585.276,18.4 L588.24,18.4 C588.224,17.7439967 588.100001,17.2480017 587.868,16.912 C587.635999,16.5759983 587.272002,16.408 586.776,16.408 L586.776,16.408 Z M591.144,22 L591.144,15.676 L592.104,15.676 L592.236,16.888 C592.604002,15.9839955 593.155996,15.532 593.892,15.532 C594.116001,15.532 594.323999,15.5559998 594.516,15.604 L594.312,16.684 C594.216,16.6599999 594.128,16.6420001 594.048,16.63 C593.968,16.6179999 593.872001,16.612 593.76,16.612 C593.559999,16.612 593.380001,16.6579995 593.22,16.75 C593.059999,16.8420005 592.916001,16.9659992 592.788,17.122 C592.659999,17.2780008 592.552,17.457999 592.464,17.662 C592.376,17.866001 592.304,18.0759989 592.248,18.292 L592.248,22 L591.144,22 Z" id="Header" fill="#646464" sketch:type="MSShapeGroup"></path>
            <path d="M560.46,51 L557.22,44.004 L557.172,44.004 C557.18,44.0520002 557.192,44.171999 557.208,44.364 C557.224,44.556001 557.24,44.7919986 557.256,45.072 C557.272,45.3520014 557.288,45.6579983 557.304,45.99 C557.32,46.3220017 557.328,46.6479984 557.328,46.968 L557.328,51 L556.26,51 L556.26,42.732 L557.772,42.732 L561.048,49.764 L561.096,49.764 C561.088,49.7159998 561.076,49.6020009 561.06,49.422 C561.044,49.2419991 561.026,49.0180013 561.006,48.75 C560.986,48.4819987 560.97,48.1780017 560.958,47.838 C560.946,47.4979983 560.94,47.1400019 560.94,46.764 L560.94,42.732 L562.008,42.732 L562.008,51 L560.46,51 Z M568.704,49.572 C568.704,49.8280013 568.742,50.0099995 568.818,50.118 C568.894,50.2260005 569.011999,50.3119997 569.172,50.376 L568.908,51.144 C568.627999,51.1039998 568.388001,51.0160007 568.188,50.88 C567.987999,50.7439993 567.84,50.5360014 567.744,50.256 C567.519999,50.5600015 567.246002,50.7839993 566.922,50.928 C566.597998,51.0720007 566.244002,51.144 565.86,51.144 C565.219997,51.144 564.718002,50.9660018 564.354,50.61 C563.989998,50.2539982 563.808,49.780003 563.808,49.188 C563.808,48.5319967 564.061997,48.0280018 564.57,47.676 C565.078003,47.3239982 565.815995,47.148 566.784,47.148 L567.6,47.148 L567.6,46.656 C567.6,46.2079978 567.488001,45.8920009 567.264,45.708 C567.039999,45.5239991 566.696002,45.432 566.232,45.432 C566.023999,45.432 565.778001,45.4579997 565.494,45.51 C565.209999,45.5620003 564.904002,45.6439994 564.576,45.756 L564.288,44.94 C564.680002,44.7959993 565.051998,44.6920003 565.404,44.628 C565.756002,44.5639997 566.087998,44.532 566.4,44.532 C567.208004,44.532 567.793998,44.7139982 568.158,45.078 C568.522002,45.4420018 568.704,45.9479968 568.704,46.596 L568.704,49.572 Z M566.16,50.316 C566.464002,50.316 566.733999,50.2400008 566.97,50.088 C567.206001,49.9359992 567.415999,49.7200014 567.6,49.44 L567.6,47.88 L566.844,47.88 C566.163997,47.88 565.690001,47.9939989 565.422,48.222 C565.153999,48.4500011 565.02,48.7559981 565.02,49.14 C565.02,49.532002 565.109999,49.825999 565.29,50.022 C565.470001,50.218001 565.759998,50.316 566.16,50.316 L566.16,50.316 Z M573.24,51 L571.956,51 L569.772,44.676 L570.948,44.676 L572.604,49.98 L572.652,49.98 L574.296,44.676 L575.436,44.676 L573.24,51 Z M578.016,42.48 C578.016,42.6960011 577.944001,42.8759993 577.8,43.02 C577.655999,43.1640007 577.468001,43.236 577.236,43.236 C577.003999,43.236 576.818001,43.1640007 576.678,43.02 C576.537999,42.8759993 576.468,42.6960011 576.468,42.48 C576.468,42.271999 576.537999,42.0960007 576.678,41.952 C576.818001,41.8079993 577.003999,41.736 577.236,41.736 C577.468001,41.736 577.655999,41.8079993 577.8,41.952 C577.944001,42.0960007 578.016,42.271999 578.016,42.48 L578.016,42.48 Z M576.684,51 L576.684,44.676 L577.788,44.676 L577.788,51 L576.684,51 Z M581.232,48.792 C581.16,48.8560003 581.098,48.9399995 581.046,49.044 C580.994,49.1480005 580.968,49.2559994 580.968,49.368 C580.968,49.5120007 581.017999,49.6339995 581.118,49.734 C581.218001,49.8340005 581.395999,49.884 581.652,49.884 L582.528,49.884 C583.296004,49.884 583.887998,50.0359985 584.304,50.34 C584.720002,50.6440015 584.928,51.0839971 584.928,51.66 C584.928,51.9880016 584.852001,52.2719988 584.7,52.512 C584.547999,52.7520012 584.340001,52.9499992 584.076,53.106 C583.811999,53.2620008 583.502002,53.3759996 583.146,53.448 C582.789998,53.5200004 582.408002,53.556 582,53.556 C581.055995,53.556 580.368002,53.4000016 579.936,53.088 C579.503998,52.7759984 579.288,52.3080031 579.288,51.684 L579.288,51.636 L580.284,51.636 C580.284,51.844001 580.324,52.0159993 580.404,52.152 C580.484,52.2880007 580.599999,52.3959996 580.752,52.476 C580.904001,52.5560004 581.085999,52.6119998 581.298,52.644 C581.510001,52.6760002 581.743999,52.692 582,52.692 C582.352002,52.692 582.643999,52.6660003 582.876,52.614 C583.108001,52.5619997 583.293999,52.4920004 583.434,52.404 C583.574001,52.3159996 583.672,52.2140006 583.728,52.098 C583.784,51.9819994 583.812,51.8560007 583.812,51.72 C583.812,51.5919994 583.794,51.4720006 583.758,51.36 C583.722,51.2479994 583.654001,51.1500004 583.554,51.066 C583.454,50.9819996 583.316001,50.9180002 583.14,50.874 C582.963999,50.8299998 582.740001,50.808 582.468,50.808 L581.628,50.808 C581.115997,50.808 580.708002,50.6980011 580.404,50.478 C580.099998,50.2579989 579.948,49.9560019 579.948,49.572 C579.948,49.379999 580.001999,49.1900009 580.11,49.002 C580.218001,48.8139991 580.371999,48.6480007 580.572,48.504 C580.251998,48.3199991 580.006001,48.0780015 579.834,47.778 C579.661999,47.4779985 579.576,47.1360019 579.576,46.752 C579.576,46.4399984 579.631999,46.1480014 579.744,45.876 C579.856001,45.6039986 580.017999,45.370001 580.23,45.174 C580.442001,44.977999 580.701998,44.8220006 581.01,44.706 C581.318002,44.5899994 581.663998,44.532 582.048,44.532 C582.392002,44.532 582.701999,44.5180001 582.978,44.49 C583.254001,44.4619999 583.505999,44.4220003 583.734,44.37 C583.962001,44.3179997 584.169999,44.2580003 584.358,44.19 C584.546001,44.1219997 584.727999,44.0480004 584.904,43.968 L585.228,44.964 C584.963999,45.0520004 584.684001,45.1059999 584.388,45.126 C584.091999,45.1460001 583.780002,45.156 583.452,45.156 L583.452,45.204 C583.764002,45.3480007 584.009999,45.5539987 584.19,45.822 C584.370001,46.0900013 584.46,46.4039982 584.46,46.764 C584.46,47.0680015 584.406001,47.3499987 584.298,47.61 C584.189999,47.8700013 584.034001,48.095999 583.83,48.288 C583.625999,48.480001 583.376001,48.6299995 583.08,48.738 C582.783999,48.8460005 582.448002,48.9 582.072,48.9 C581.783999,48.9 581.504001,48.8640004 581.232,48.792 L581.232,48.792 Z M580.704,46.752 C580.704,47.1680021 580.819999,47.5079987 581.052,47.772 C581.284001,48.0360013 581.615998,48.168 582.048,48.168 C582.480002,48.168 582.807999,48.0380013 583.032,47.778 C583.256001,47.5179987 583.368,47.1720022 583.368,46.74 C583.368,46.2839977 583.260001,45.9340012 583.044,45.69 C582.827999,45.4459988 582.496002,45.324 582.048,45.324 C581.607998,45.324 581.274001,45.4599986 581.046,45.732 C580.817999,46.0040014 580.704,46.343998 580.704,46.752 L580.704,46.752 Z M590.664,49.572 C590.664,49.8280013 590.702,50.0099995 590.778,50.118 C590.854,50.2260005 590.971999,50.3119997 591.132,50.376 L590.868,51.144 C590.587999,51.1039998 590.348001,51.0160007 590.148,50.88 C589.947999,50.7439993 589.8,50.5360014 589.704,50.256 C589.479999,50.5600015 589.206002,50.7839993 588.882,50.928 C588.557998,51.0720007 588.204002,51.144 587.82,51.144 C587.179997,51.144 586.678002,50.9660018 586.314,50.61 C585.949998,50.2539982 585.768,49.780003 585.768,49.188 C585.768,48.5319967 586.021997,48.0280018 586.53,47.676 C587.038003,47.3239982 587.775995,47.148 588.744,47.148 L589.56,47.148 L589.56,46.656 C589.56,46.2079978 589.448001,45.8920009 589.224,45.708 C588.999999,45.5239991 588.656002,45.432 588.192,45.432 C587.983999,45.432 587.738001,45.4579997 587.454,45.51 C587.169999,45.5620003 586.864002,45.6439994 586.536,45.756 L586.248,44.94 C586.640002,44.7959993 587.011998,44.6920003 587.364,44.628 C587.716002,44.5639997 588.047998,44.532 588.36,44.532 C589.168004,44.532 589.753998,44.7139982 590.118,45.078 C590.482002,45.4420018 590.664,45.9479968 590.664,46.596 L590.664,49.572 Z M588.12,50.316 C588.424002,50.316 588.693999,50.2400008 588.93,50.088 C589.166001,49.9359992 589.375999,49.7200014 589.56,49.44 L589.56,47.88 L588.804,47.88 C588.123997,47.88 587.650001,47.9939989 587.382,48.222 C587.113999,48.4500011 586.98,48.7559981 586.98,49.14 C586.98,49.532002 587.069999,49.825999 587.25,50.022 C587.430001,50.218001 587.719998,50.316 588.12,50.316 L588.12,50.316 Z M596.16,50.712 C595.967999,50.8560007 595.750001,50.9639996 595.506,51.036 C595.261999,51.1080004 595.008001,51.144 594.744,51.144 C594.151997,51.144 593.720001,50.9760017 593.448,50.64 C593.175999,50.3039983 593.04,49.8600028 593.04,49.308 L593.04,45.516 L592.032,45.516 L592.032,44.676 L593.04,44.676 L593.04,43.248 L594.144,43.116 L594.144,44.676 L595.74,44.676 L595.608,45.516 L594.144,45.516 L594.144,49.296 C594.144,49.6160016 594.199999,49.8519992 594.312,50.004 C594.424001,50.1560008 594.619999,50.232 594.9,50.232 C595.164001,50.232 595.443999,50.1400009 595.74,49.956 L596.16,50.712 Z M598.632,42.48 C598.632,42.6960011 598.560001,42.8759993 598.416,43.02 C598.271999,43.1640007 598.084001,43.236 597.852,43.236 C597.619999,43.236 597.434001,43.1640007 597.294,43.02 C597.153999,42.8759993 597.084,42.6960011 597.084,42.48 C597.084,42.271999 597.153999,42.0960007 597.294,41.952 C597.434001,41.8079993 597.619999,41.736 597.852,41.736 C598.084001,41.736 598.271999,41.8079993 598.416,41.952 C598.560001,42.0960007 598.632,42.271999 598.632,42.48 L598.632,42.48 Z M597.3,51 L597.3,44.676 L598.404,44.676 L598.404,51 L597.3,51 Z M604.668,47.832 C604.668,47.0079959 604.530001,46.400002 604.254,46.008 C603.977999,45.615998 603.576003,45.42 603.048,45.42 C602.519997,45.42 602.114001,45.615998 601.83,46.008 C601.545999,46.400002 601.404,47.0119958 601.404,47.844 C601.404,48.6680041 601.543999,49.275998 601.824,49.668 C602.104001,50.060002 602.507997,50.256 603.036,50.256 C603.564003,50.256 603.967999,50.060002 604.248,49.668 C604.528001,49.275998 604.668,48.6640042 604.668,47.832 L604.668,47.832 Z M600.216,47.844 C600.216,47.3559976 600.279999,46.908002 600.408,46.5 C600.536001,46.091998 600.719999,45.7420015 600.96,45.45 C601.200001,45.1579985 601.495998,44.9320008 601.848,44.772 C602.200002,44.6119992 602.599998,44.532 603.048,44.532 C603.496002,44.532 603.893998,44.6099992 604.242,44.766 C604.590002,44.9220008 604.883999,45.1439986 605.124,45.432 C605.364001,45.7200014 605.545999,46.065998 605.67,46.47 C605.794001,46.874002 605.856,47.3279975 605.856,47.832 C605.856,48.3200024 605.792001,48.767998 605.664,49.176 C605.535999,49.584002 605.352001,49.9339985 605.112,50.226 C604.871999,50.5180015 604.578002,50.7439992 604.23,50.904 C603.881998,51.0640008 603.484002,51.144 603.036,51.144 C602.587998,51.144 602.188002,51.0660008 601.836,50.91 C601.483998,50.7539992 601.188001,50.5320014 600.948,50.244 C600.707999,49.9559986 600.526001,49.610002 600.402,49.206 C600.277999,48.801998 600.216,48.3480025 600.216,47.844 L600.216,47.844 Z M608.82,51 L607.716,51 L607.716,44.676 L608.664,44.676 L608.748,45.54 C609.004001,45.2119984 609.309998,44.9620009 609.666,44.79 C610.022002,44.6179991 610.387998,44.532 610.764,44.532 C611.380003,44.532 611.819999,44.6959984 612.084,45.024 C612.348001,45.3520016 612.48,45.811997 612.48,46.404 L612.48,51 L611.376,51 L611.376,46.476 C611.376,46.0919981 611.302001,45.8160008 611.154,45.648 C611.005999,45.4799992 610.752002,45.396 610.392,45.396 C610.223999,45.396 610.062001,45.4259997 609.906,45.486 C609.749999,45.5460003 609.606001,45.6239995 609.474,45.72 C609.341999,45.8160005 609.220001,45.9259994 609.108,46.05 C608.995999,46.1740006 608.9,46.2959994 608.82,46.416 L608.82,51 Z" id="Navigation" fill="#646464" sketch:type="MSShapeGroup"></path>
            <path d="M557.4,179.644 L557.4,182.464 L560.1,182.464 L560.1,183.364 L557.4,183.364 L557.4,187 L556.26,187 L556.26,178.732 L560.652,178.732 L560.52,179.644 L557.4,179.644 Z M565.788,183.832 C565.788,183.007996 565.650001,182.400002 565.374,182.008 C565.097999,181.615998 564.696003,181.42 564.168,181.42 C563.639997,181.42 563.234001,181.615998 562.95,182.008 C562.665999,182.400002 562.524,183.011996 562.524,183.844 C562.524,184.668004 562.663999,185.275998 562.944,185.668 C563.224001,186.060002 563.627997,186.256 564.156,186.256 C564.684003,186.256 565.087999,186.060002 565.368,185.668 C565.648001,185.275998 565.788,184.664004 565.788,183.832 L565.788,183.832 Z M561.336,183.844 C561.336,183.355998 561.399999,182.908002 561.528,182.5 C561.656001,182.091998 561.839999,181.742001 562.08,181.45 C562.320001,181.157999 562.615998,180.932001 562.968,180.772 C563.320002,180.611999 563.719998,180.532 564.168,180.532 C564.616002,180.532 565.013998,180.609999 565.362,180.766 C565.710002,180.922001 566.003999,181.143999 566.244,181.432 C566.484001,181.720001 566.665999,182.065998 566.79,182.47 C566.914001,182.874002 566.976,183.327997 566.976,183.832 C566.976,184.320002 566.912001,184.767998 566.784,185.176 C566.655999,185.584002 566.472001,185.933999 566.232,186.226 C565.991999,186.518001 565.698002,186.743999 565.35,186.904 C565.001998,187.064001 564.604002,187.144 564.156,187.144 C563.707998,187.144 563.308002,187.066001 562.956,186.91 C562.603998,186.753999 562.308001,186.532001 562.068,186.244 C561.827999,185.955999 561.646001,185.610002 561.522,185.206 C561.397999,184.801998 561.336,184.348003 561.336,183.844 L561.336,183.844 Z M572.796,183.832 C572.796,183.007996 572.658001,182.400002 572.382,182.008 C572.105999,181.615998 571.704003,181.42 571.176,181.42 C570.647997,181.42 570.242001,181.615998 569.958,182.008 C569.673999,182.400002 569.532,183.011996 569.532,183.844 C569.532,184.668004 569.671999,185.275998 569.952,185.668 C570.232001,186.060002 570.635997,186.256 571.164,186.256 C571.692003,186.256 572.095999,186.060002 572.376,185.668 C572.656001,185.275998 572.796,184.664004 572.796,183.832 L572.796,183.832 Z M568.344,183.844 C568.344,183.355998 568.407999,182.908002 568.536,182.5 C568.664001,182.091998 568.847999,181.742001 569.088,181.45 C569.328001,181.157999 569.623998,180.932001 569.976,180.772 C570.328002,180.611999 570.727998,180.532 571.176,180.532 C571.624002,180.532 572.021998,180.609999 572.37,180.766 C572.718002,180.922001 573.011999,181.143999 573.252,181.432 C573.492001,181.720001 573.673999,182.065998 573.798,182.47 C573.922001,182.874002 573.984,183.327997 573.984,183.832 C573.984,184.320002 573.920001,184.767998 573.792,185.176 C573.663999,185.584002 573.480001,185.933999 573.24,186.226 C572.999999,186.518001 572.706002,186.743999 572.358,186.904 C572.009998,187.064001 571.612002,187.144 571.164,187.144 C570.715998,187.144 570.316002,187.066001 569.964,186.91 C569.611998,186.753999 569.316001,186.532001 569.076,186.244 C568.835999,185.955999 568.654001,185.610002 568.53,185.206 C568.405999,184.801998 568.344,184.348003 568.344,183.844 L568.344,183.844 Z M579.048,186.712 C578.855999,186.856001 578.638001,186.964 578.394,187.036 C578.149999,187.108 577.896001,187.144 577.632,187.144 C577.039997,187.144 576.608001,186.976002 576.336,186.64 C576.063999,186.303998 575.928,185.860003 575.928,185.308 L575.928,181.516 L574.92,181.516 L574.92,180.676 L575.928,180.676 L575.928,179.248 L577.032,179.116 L577.032,180.676 L578.628,180.676 L578.496,181.516 L577.032,181.516 L577.032,185.296 C577.032,185.616002 577.087999,185.851999 577.2,186.004 C577.312001,186.156001 577.507999,186.232 577.788,186.232 C578.052001,186.232 578.331999,186.140001 578.628,185.956 L579.048,186.712 Z M580.872,184.216 C580.92,184.920004 581.095998,185.433998 581.4,185.758 C581.704002,186.082002 582.095998,186.244 582.576,186.244 C582.864001,186.244 583.131999,186.202 583.38,186.118 C583.628001,186.034 583.887999,185.880001 584.16,185.656 L584.664,186.388 C584.367999,186.620001 584.044002,186.803999 583.692,186.94 C583.339998,187.076001 582.960002,187.144 582.552,187.144 C582.079998,187.144 581.666002,187.064001 581.31,186.904 C580.953998,186.743999 580.656001,186.520001 580.416,186.232 C580.175999,185.943999 579.996001,185.598002 579.876,185.194 C579.755999,184.789998 579.696,184.340002 579.696,183.844 C579.696,183.363998 579.755999,182.922002 579.876,182.518 C579.996001,182.113998 580.171999,181.766001 580.404,181.474 C580.636001,181.181999 580.915998,180.952001 581.244,180.784 C581.572002,180.615999 581.947998,180.532 582.372,180.532 C583.204004,180.532 583.837998,180.809997 584.274,181.366 C584.710002,181.922003 584.928,182.683995 584.928,183.652 C584.928,183.764001 584.926,183.868 584.922,183.964 C584.918,184.06 584.912,184.144 584.904,184.216 L580.872,184.216 Z M582.372,181.408 C581.939998,181.408 581.592001,181.569998 581.328,181.894 C581.063999,182.218002 580.912,182.719997 580.872,183.4 L583.836,183.4 C583.82,182.743997 583.696001,182.248002 583.464,181.912 C583.231999,181.575998 582.868002,181.408 582.372,181.408 L582.372,181.408 Z M586.74,187 L586.74,180.676 L587.7,180.676 L587.832,181.888 C588.200002,180.983995 588.751996,180.532 589.488,180.532 C589.712001,180.532 589.919999,180.556 590.112,180.604 L589.908,181.684 C589.812,181.66 589.724,181.642 589.644,181.63 C589.564,181.618 589.468001,181.612 589.356,181.612 C589.155999,181.612 588.976001,181.658 588.816,181.75 C588.655999,181.842 588.512001,181.965999 588.384,182.122 C588.255999,182.278001 588.148,182.457999 588.06,182.662 C587.972,182.866001 587.9,183.075999 587.844,183.292 L587.844,187 L586.74,187 Z" id="Footer" fill="#646464" sketch:type="MSShapeGroup"></path>
        </g>
    </g>
</svg>